<!DOCTYPE svg PUBLIC "-//W3C//DTD SVG 1.1//EN" "http://www.w3.org/Graphics/SVG/1.1/DTD/svg11.dtd">
<!-- Uploaded to: SVG Repo, www.svgrepo.com, Transformed by: SVG Repo Mixer Tools -->
<svg height="800px" width="800px" version="1.1" id="Layer_1" xmlns="http://www.w3.org/2000/svg" xmlns:xlink="http://www.w3.org/1999/xlink" viewBox="0 0 512 512" xml:space="preserve" fill="#C6A253" stroke="#C6A253">
<g id="SVGRepo_bgCarrier" stroke-width="0"/>
<g id="SVGRepo_tracerCarrier" stroke-linecap="round" stroke-linejoin="round"/>
<g id="SVGRepo_iconCarrier"> <g> <polygon style="fill:#9C4A3F;" points="0.32,161.92 0,128.24 174.8,29.36 320,126.16 466.08,37.44 483.921,59.44 321.68,161.28 173.441,62.48 "/> <polygon style="fill:#9C4A3F;" points="450.32,27.44 512,22 485.92,78.16 "/> </g> <polygon points="136.8,489.521 86.16,489.521 86.16,146.56 136.8,119.76 "/> <g> <polygon style="fill:#9C4A3F;" points="52.48,489.521 1.84,489.521 1.84,194.08 52.48,169.04 "/> <polygon style="fill:#9C4A3F;" points="221.12,489.521 170.48,489.521 170.48,99.04 220.72,134.88 "/> </g> <polygon points="305.441,489.521 254.8,489.521 254.8,154.96 305.441,188.72 "/> <polygon style="fill:#9C4A3F;" points="389.76,488.72 338.88,488.72 338.56,185.76 389.76,158.08 "/> <polygon points="474.08,490 423.52,490 423.52,134.32 474.08,103.12 "/> </g>
</svg>