<!DOCTYPE svg PUBLIC "-//W3C//DTD SVG 1.1//EN" "http://www.w3.org/Graphics/SVG/1.1/DTD/svg11.dtd">
<!-- Uploaded to: SVG Repo, www.svgrepo.com, Transformed by: SVG Repo Mixer Tools -->
<svg height="800px" width="800px" version="1.1" id="Layer_1" xmlns="http://www.w3.org/2000/svg" xmlns:xlink="http://www.w3.org/1999/xlink" viewBox="0 0 512 512" xml:space="preserve" fill="#000000">
<g id="SVGRepo_bgCarrier" stroke-width="0"/>
<g id="SVGRepo_tracerCarrier" stroke-linecap="round" stroke-linejoin="round"/>
<g id="SVGRepo_iconCarrier"> <path style="fill:#ff66b8;" d="M491.704,29.044C491.704,13.07,478.634,0,462.66,0H49.34C33.366,0,20.296,13.07,20.296,29.044 v453.912C20.296,498.93,33.365,512,49.34,512H462.66c15.975,0,29.044-13.07,29.044-29.044L491.704,29.044L491.704,29.044z"/> <circle style="fill:#FFFFFF;" cx="120.384" cy="92.61" r="57.928"/> <g> <path style="fill:#4a4945;" d="M449.543,80.85H204.804c-4.629,0-8.383-3.753-8.383-8.383c0-4.629,3.753-8.383,8.383-8.383h244.739 c4.629,0,8.383,3.753,8.383,8.383C457.926,77.097,454.173,80.85,449.543,80.85z"/> <path style="fill:#4a4945;" d="M402.3,121.124H204.804c-4.629,0-8.383-3.753-8.383-8.383s3.753-8.383,8.383-8.383H402.3 c4.629,0,8.383,3.753,8.383,8.383S406.929,121.124,402.3,121.124z"/> </g> <circle style="fill:#FFFFFF;" cx="120.384" cy="257.98" r="57.928"/> <g> <path style="fill:#4a4945;" d="M449.543,246.232H204.804c-4.629,0-8.383-3.753-8.383-8.383c0-4.629,3.753-8.383,8.383-8.383 h244.739c4.629,0,8.383,3.753,8.383,8.383C457.926,242.478,454.173,246.232,449.543,246.232z"/> <path style="fill:#4a4945;" d="M402.3,286.506H204.804c-4.629,0-8.383-3.753-8.383-8.383c0-4.629,3.753-8.383,8.383-8.383H402.3 c4.629,0,8.383,3.753,8.383,8.383S406.929,286.506,402.3,286.506z"/> </g> <circle style="fill:#FFFFFF;" cx="120.384" cy="423.373" r="57.928"/> <g> <path style="fill:#4a4945;" d="M449.543,411.613H204.804c-4.629,0-8.383-3.753-8.383-8.383c0-4.629,3.753-8.383,8.383-8.383 h244.739c4.629,0,8.383,3.753,8.383,8.383C457.926,407.861,454.173,411.613,449.543,411.613z"/> <path style="fill:#4a4945;" d="M402.3,451.888H204.804c-4.629,0-8.383-3.753-8.383-8.383c0-4.629,3.753-8.383,8.383-8.383H402.3 c4.629,0,8.383,3.753,8.383,8.383C410.682,448.135,406.929,451.888,402.3,451.888z"/> </g> <path style="fill:#FF9E16;" d="M104.21,121.887c-2.145,0-4.291-0.818-5.927-2.456l-14.921-14.921c-3.274-3.274-3.274-8.581,0-11.854 c3.274-3.274,8.581-3.274,11.854,0l8.993,8.993l35.024-35.024c3.274-3.274,8.581-3.274,11.854,0c3.274,3.274,3.274,8.581,0,11.854 l-40.951,40.951C108.501,121.068,106.356,121.887,104.21,121.887z"/> </g>
</svg>